<?xml version="1.0" standalone="no"?>
<svg viewBox="0 0 200 200" xmlns="http://www.w3.org/2000/svg">
  <path fill="#804D35" d="M31.4,-51.4C44.3,-46.9,60.9,-45.8,71.4,-37.8C81.9,-29.8,86.4,-14.9,82.6,-2.2C78.8,10.5,66.8,21.1,56.9,30.1C47,39.1,39.1,46.7,30,53.2C20.8,59.8,10.4,65.5,2.3,61.5C-5.8,57.6,-11.7,43.9,-18.4,35.9C-25.1,27.9,-32.7,25.6,-40.6,20.6C-48.4,15.5,-56.5,7.8,-55.4,0.6C-54.4,-6.5,-44.1,-13.1,-36.5,-18.5C-28.9,-23.9,-23.8,-28.2,-18.2,-36.9C-12.5,-45.5,-6.3,-58.5,1.5,-61.1C9.2,-63.6,18.5,-55.8,31.4,-51.4Z" transform="translate(100 100)" />
</svg>
